<?xml version="1.0" encoding="UTF-8"?>
<!DOCTYPE svg PUBLIC "-//W3C//DTD SVG 1.1//EN" "http://www.w3.org/Graphics/SVG/1.1/DTD/svg11.dtd">
<!-- Creator: CorelDRAW 2018 (64-Bit) -->
<svg xmlns="http://www.w3.org/2000/svg" xml:space="preserve" width="101px" height="73px" version="1.1" style="shape-rendering:geometricPrecision; text-rendering:geometricPrecision; image-rendering:optimizeQuality; fill-rule:evenodd; clip-rule:evenodd"
viewBox="0 0 24.97 18.14"
 xmlns:xlink="http://www.w3.org/1999/xlink">
 <defs>
  <style type="text/css">
   <![CDATA[
    .fil0 {fill:#FEFEFE}
    .fil1 {fill:#FEFEFE;fill-rule:nonzero}
   ]]>
  </style>
 </defs>
 <g id="Слой_x0020_1">
  <metadata id="CorelCorpID_0Corel-Layer"/>
  <path class="fil0" d="M9.21 4.53c-1.16,-0.01 -1.11,1.65 -0.05,1.66 1.12,0.01 1.12,-1.65 0.05,-1.66zm-3.76 -1.46c0,3.27 -0.03,6.43 -0.01,9.69 0,0.3 -0.01,1.78 -0.01,2.74 0.09,0.62 0.3,0.73 0.82,0.84 0.39,0 0.82,0 0.98,0 1.78,0 3.56,0.03 5.34,0.01l5.34 0c0.28,0 0.59,0 0.9,-0.01 0.56,-0.05 0.81,-0.33 0.91,-0.89l0.01 -6.26c0,-1.18 -0.01,-2.36 -0.01,-3.56 -0.01,-0.16 -0.01,-1.27 -0.01,-2.21 0,-1.28 -0.59,-1.26 -1.8,-1.36 -2.96,0.02 -5.93,-0.01 -8.9,0 -0.83,0.01 -1.67,0 -2.51,0 -0.52,0.07 -1.03,0.09 -1.05,1.01zm1.35 0.34c0.65,-0.02 11.4,-0.04 11.58,0 0.03,0.16 0.01,1.73 0.01,2.02l0 4.02c0,0.34 0,0.66 0,1.01 -0.01,0.31 0.01,0.7 -0.03,1.01 -0.16,-0.15 -0.66,-1.13 -0.84,-1.41 -0.07,-0.1 -0.34,-0.62 -0.54,-0.59 -0.18,0.02 -0.36,0.44 -0.63,0.54 -0.35,0.12 -0.6,-0.15 -0.84,0.15 -0.3,0.37 -0.53,0.92 -1.01,1.5 -0.18,0.21 -0.48,0.43 -0.6,0.62 0.55,0.08 4.05,-0.04 4.49,0.03l-0.02 0.85c-0.31,0.12 -7.68,0.08 -8.65,0.07 -0.59,0 -2.45,0.03 -2.89,-0.01 -0.06,-0.14 -0.12,-0.73 -0.02,-0.88 0.16,-0.09 0.88,-0.04 1.15,-0.04l3.78 0c0.59,0 1.4,-0.35 1.76,-0.81 0.41,-0.6 0.65,-0.88 0.94,-1.56 -0.1,-0.22 -0.45,-0.83 -0.55,-1.05l-0.5 -1.17c-0.2,-0.33 -0.59,-1.08 -0.94,-1.15 -0.44,-0.1 -0.5,0.68 -1.18,0.89 -0.71,0.21 -0.93,-0.37 -1.45,0.39 -0.32,0.45 -0.58,0.97 -0.88,1.44 -0.5,0.78 -1.12,1.41 -1.82,1.98 -0.19,0.16 -0.17,0.2 -0.31,0.2 0,-0.3 -0.04,-0.65 -0.03,-0.99l-0.01 -5.05c0.01,-0.34 -0.01,-1.79 0.03,-2.01z"/>
  <polygon class="fil1" points="0,18.14 0,0 3.85,0 3.85,1.45 1.74,1.45 1.74,16.69 3.85,16.69 3.85,18.14 "/>
  <polygon class="fil1" points="24.97,18.14 24.97,0 21.13,0 21.13,1.45 23.23,1.45 23.23,16.69 21.13,16.69 21.13,18.14 "/>
 </g>
</svg>
