<?xml version="1.0" encoding="UTF-8"?>
<!DOCTYPE svg PUBLIC "-//W3C//DTD SVG 1.1//EN" "http://www.w3.org/Graphics/SVG/1.1/DTD/svg11.dtd">
<!-- Creator: CorelDRAW 2018 (64-Bit) -->
<svg xmlns="http://www.w3.org/2000/svg" xml:space="preserve" width="48px" height="60px" version="1.1" style="shape-rendering:geometricPrecision; text-rendering:geometricPrecision; image-rendering:optimizeQuality; fill-rule:evenodd; clip-rule:evenodd"
viewBox="0 0 14.82 18.67"
 xmlns:xlink="http://www.w3.org/1999/xlink">
 <defs>
  <style type="text/css">
   <![CDATA[
    .str0 {stroke:#FEFEFE;stroke-width:0.83;stroke-miterlimit:22.9256}
    .fil0 {fill:none}
    .fil1 {fill:#FEFEFE;fill-rule:nonzero}
   ]]>
  </style>
 </defs>
 <g id="Слой_x0020_1">
  <metadata id="CorelCorpID_0Corel-Layer"/>
  <path class="fil0 str0" d="M5.4 0.41c3,0 6.01,0 9.01,0 0,5.95 0,11.9 0,17.85 -4.67,0 -9.33,0 -14,0 0,-3.7 0,-7.41 0,-11.11"/>
  <polygon class="fil1" points="2.78,11.68 2.78,4.34 0.04,4.34 0.04,3.37 6.62,3.37 6.62,4.34 3.88,4.34 3.88,11.68 "/>
  <path class="fil1" d="M5.25 11.45l1.69 -2.39 -1.56 -2.23 0.96 0 0.73 1.09c0.13,0.21 0.24,0.37 0.32,0.5 0.13,-0.18 0.24,-0.35 0.35,-0.5l0.77 -1.09 0.95 0 -1.57 2.23 1.67 2.39 -0.95 0 -0.95 -1.42 -0.22 -0.35 -1.23 1.77 -0.96 0zm6.68 -0.7l0.11 0.69c-0.22,0.05 -0.42,0.07 -0.59,0.07 -0.29,0 -0.5,-0.05 -0.66,-0.14 -0.16,-0.09 -0.27,-0.2 -0.33,-0.35 -0.06,-0.15 -0.1,-0.45 -0.1,-0.92l0 -2.66 -0.57 0 0 -0.61 0.57 0 0 -1.14 0.79 -0.47 0 1.61 0.78 0 0 0.61 -0.78 0 0 2.7c0,0.22 0.01,0.37 0.04,0.43 0.02,0.07 0.07,0.12 0.13,0.15 0.06,0.04 0.15,0.06 0.27,0.06 0.08,0 0.2,-0.01 0.34,-0.03z"/>
 </g>
</svg>
