<?xml version="1.0" encoding="UTF-8"?>
<!DOCTYPE svg PUBLIC "-//W3C//DTD SVG 1.1//EN" "http://www.w3.org/Graphics/SVG/1.1/DTD/svg11.dtd">
<!-- Creator: CorelDRAW 2018 (64-Bit) -->
<svg xmlns="http://www.w3.org/2000/svg" xml:space="preserve" width="118px" height="100px" version="1.1" style="shape-rendering:geometricPrecision; text-rendering:geometricPrecision; image-rendering:optimizeQuality; fill-rule:evenodd; clip-rule:evenodd"
viewBox="0 0 28.47 24"
 xmlns:xlink="http://www.w3.org/1999/xlink">
 <defs>
  <style type="text/css">
   <![CDATA[
    .fil0 {fill:#FEFEFE}
   ]]>
  </style>
 </defs>
 <g id="Слой_x0020_1">
  <metadata id="CorelCorpID_0Corel-Layer"/>
  <path class="fil0" d="M20.41 20.28c0.09,-0.56 0.41,-0.97 0.96,-1.04 0.41,-0.13 0.82,0.08 1.04,0.29 0.28,0.25 0.42,0.53 0.38,1.04 -0.09,0.53 -0.42,0.93 -0.96,1 -0.36,0.11 -0.82,-0.06 -1.02,-0.27 -0.26,-0.27 -0.42,-0.48 -0.4,-1.02zm-10.8 0.12c0.02,-0.49 0.18,-0.69 0.45,-0.92 0.26,-0.24 0.6,-0.29 1.01,-0.25 0.5,0.13 0.82,0.42 0.92,0.97 0.07,0.49 -0.12,0.86 -0.37,1.09 -0.22,0.21 -0.66,0.4 -1.05,0.28 -0.59,-0.1 -0.94,-0.52 -0.96,-1.17zm-9.61 -19.36c0.07,0.47 0.04,0.69 0.33,0.99 0.19,0.2 0.5,0.37 0.9,0.39 0.84,0.03 1.73,0 2.58,0 0.14,0.03 0.32,0.99 0.35,1.12 0.07,0.29 0.28,0.95 0.26,1.19 0.11,0.12 0.15,0.42 0.19,0.62 0.06,0.28 0.29,0.98 0.27,1.22 0.11,0.12 0.15,0.42 0.19,0.61 0.05,0.18 0.16,0.54 0.14,0.72 0.15,0.16 0.26,0.85 0.32,1.12 0.05,0.21 0.16,0.51 0.14,0.72 0.11,0.12 0.15,0.42 0.19,0.61 0.07,0.3 0.29,0.95 0.27,1.22 0.12,0.13 0.45,1.62 0.52,1.91 0.15,0.65 0.33,1.3 0.5,1.92 0.07,0.07 0.24,0.56 0.77,0.94 0.79,0.58 1.52,0.45 2.43,0.47l-0.33 0.08c-0.09,0.02 -0.17,0.04 -0.26,0.07 -0.32,0.11 -0.69,0.29 -0.95,0.47 -0.17,0.11 -0.27,0.23 -0.42,0.28l-0.22 0.22c-0.06,0.13 -0.14,0.21 -0.26,0.36 -0.1,0.13 -0.16,0.23 -0.24,0.38 -0.52,0.92 -0.61,2.03 -0.22,2.99l0.25 0.58c0.08,0.04 0.18,0.26 0.26,0.36 0.19,0.22 0.43,0.48 0.67,0.67 0.13,0.1 0.27,0.17 0.4,0.25 1.07,0.6 1.8,0.55 3.04,0.27 0.12,-0.13 0.54,-0.18 1.1,-0.7 1.91,-1.77 1.03,-3.62 1.05,-3.94l-0.11 -0.16c-0.27,-0.55 -0.45,-0.73 -0.57,-0.96 -0.26,-0.08 -0.6,-0.95 -2.37,-1.2 0.18,-0.08 9.09,-0.05 10.07,0 -0.49,0.07 -0.81,0.15 -1.22,0.35 -0.57,0.28 -0.94,0.62 -1.3,1.07 -0.13,0.17 -0.19,0.31 -0.3,0.5 -0.18,0.34 -0.33,0.73 -0.38,1.15 -0.05,0.63 -0.04,1.09 0.17,1.67 0.12,0.38 0.41,0.89 0.69,1.19 0.1,0.11 0.04,-0.01 0.11,0.14 0.16,0.09 0.28,0.3 0.72,0.57 0.63,0.37 1.29,0.57 2.06,0.53 0.55,-0.03 0.9,-0.21 1.1,-0.2 0.1,-0.11 0.29,-0.18 0.44,-0.23 0.03,-0.03 0.33,-0.22 0.4,-0.27 0.18,-0.13 0.23,-0.21 0.37,-0.34 0.19,-0.17 0.19,-0.16 0.35,-0.36 0.07,-0.1 0.2,-0.32 0.27,-0.36l0.24 -0.54c0.19,-0.55 0.29,-1.03 0.22,-1.67 -0.03,-0.32 -0.08,-0.52 -0.18,-0.79 -0.09,-0.25 -0.2,-0.44 -0.29,-0.66 -0.17,-0.21 -0.57,-0.77 -0.79,-0.93 -1.36,-0.94 -1.58,-0.66 -1.95,-0.83 0.42,-0.12 1.25,0.1 1.99,-0.17 0.38,-0.15 0.57,-0.29 0.81,-0.53 0.09,-0.09 0.22,-0.23 0.3,-0.36 0.07,-0.1 0.16,-0.34 0.23,-0.4 0.04,-0.19 0.1,-0.53 0.22,-0.66 -0.02,-0.22 0.25,-1.01 0.31,-1.3 0.03,-0.1 0.06,-0.2 0.08,-0.3l0.06 -0.16c0,-0.01 0.01,-0.02 0.01,-0.03 0.01,-0.01 0.02,-0.01 0.02,-0.03 0,-0.02 0.01,-0.02 0.02,-0.03 -0.02,-0.18 0.55,-2.2 0.65,-2.5 0.04,-0.18 0.08,-0.45 0.19,-0.57 -0.01,-0.15 0.25,-1.13 0.32,-1.26 0.03,-0.19 0.07,-0.46 0.18,-0.58 -0.02,-0.23 0.46,-1.83 0.56,-2.18 0.1,-0.4 0.56,-1.87 0.55,-2.15l-20.04 0.01c0,0.46 0.39,1.25 0.37,1.69 0.11,0.13 0.15,0.43 0.18,0.62l0.05 0.07 0.54 0.01 0.67 0 0.58 0 0.67 0 0.58 0 0.67 0 0.58 0 0.67 0 0.58 0 0.67 0 0.59 0 0.66 0 0.59 0 0.67 0 0.58 0 0.67 0 0.58 0 0.67 0 0.58 0 0.67 0 0.58 0 0.67 0 0.58 0 0.67 0 0.59 0 0.8 0.01 -0.23 0.79c-0.08,0.42 -0.22,0.83 -0.33,1.24 -0.05,0.2 -0.1,0.4 -0.16,0.59 -0.04,0.16 -0.08,0.46 -0.19,0.57 0.01,0.16 -0.56,2.3 -0.65,2.48 -0.03,0.18 -0.07,0.45 -0.18,0.57 0.01,0.21 -0.23,1.02 -0.31,1.26 -0.05,0.23 -0.15,0.72 -0.26,0.89l-13.74 0 -0.98 -3.98c-0.07,-0.27 -0.3,-0.99 -0.28,-1.22 -0.11,-0.12 -0.14,-0.42 -0.18,-0.61 -0.05,-0.21 -0.17,-0.51 -0.15,-0.72 -0.15,-0.17 -0.56,-2.06 -0.65,-2.45 -0.07,-0.3 -0.28,-0.96 -0.27,-1.22 -0.11,-0.12 -0.14,-0.43 -0.18,-0.62 -0.21,-0.67 -0.33,-1.64 -0.61,-2.22 -0.27,-0.56 -0.86,-1.11 -1.56,-1.28 -0.66,-0.15 -1.96,-0.07 -2.71,-0.07 -0.48,0 -0.85,-0.05 -1.21,0.19 -0.49,0.32 -0.41,0.63 -0.56,0.83z"/>
 </g>
</svg>
