<?xml version="1.0" encoding="UTF-8"?>
<!DOCTYPE svg PUBLIC "-//W3C//DTD SVG 1.1//EN" "http://www.w3.org/Graphics/SVG/1.1/DTD/svg11.dtd">
<!-- Creator: CorelDRAW 2018 (64-Bit) -->
<svg xmlns="http://www.w3.org/2000/svg" xml:space="preserve" width="60px" height="58px" version="1.1" style="shape-rendering:geometricPrecision; text-rendering:geometricPrecision; image-rendering:optimizeQuality; fill-rule:evenodd; clip-rule:evenodd"
viewBox="0 0 8.89 8.67"
 xmlns:xlink="http://www.w3.org/1999/xlink">
 <defs>
  <style type="text/css">
   <![CDATA[
    .fil0 {fill:#FEFEFE}
   ]]>
  </style>
 </defs>
 <g id="Слой_x0020_1">
  <metadata id="CorelCorpID_0Corel-Layer"/>
  <path class="fil0" d="M0.6 1.89c0.26,-0.08 4.56,-1.33 4.63,-1.33 0.03,0.06 0.21,0.69 0.24,0.8l0.46 1.61c0.04,0.14 0.08,0.26 0.12,0.4 0.03,0.13 0.08,0.28 0.1,0.41 -0.08,-0.04 -0.39,-0.37 -0.5,-0.47 -0.03,-0.03 -0.2,-0.2 -0.28,-0.17 -0.07,0.03 -0.09,0.22 -0.19,0.29 -0.12,0.09 -0.26,0.01 -0.32,0.15 -0.08,0.19 -0.1,0.44 -0.23,0.72 -0.05,0.11 -0.14,0.23 -0.17,0.32 0.23,-0.03 1.62,-0.48 1.8,-0.51l0.09 0.34c-0.11,0.09 -3.06,0.92 -3.45,1.03 -0.24,0.07 -0.97,0.29 -1.16,0.33 -0.04,-0.05 -0.13,-0.28 -0.1,-0.35 0.05,-0.06 0.34,-0.12 0.45,-0.15l1.51 -0.44c0.24,-0.06 0.52,-0.3 0.61,-0.52 0.1,-0.29 0.16,-0.43 0.2,-0.73 -0.07,-0.08 -0.28,-0.29 -0.34,-0.36l-0.34 -0.41c-0.12,-0.11 -0.36,-0.36 -0.51,-0.35 -0.18,0.01 -0.12,0.33 -0.36,0.49 -0.26,0.17 -0.42,-0.04 -0.54,0.32 -0.07,0.22 -0.12,0.46 -0.19,0.68 -0.11,0.37 -0.28,0.69 -0.5,1 -0.05,0.09 -0.04,0.1 -0.1,0.12 -0.03,-0.13 -0.09,-0.26 -0.12,-0.4l-0.59 -2.02c-0.03,-0.13 -0.21,-0.71 -0.22,-0.8zm-0.58 0.02c0.38,1.31 0.73,2.57 1.12,3.88 0.03,0.11 0.19,0.71 0.31,1.09 0.11,0.24 0.2,0.26 0.42,0.24 0.16,-0.04 0.33,-0.09 0.39,-0.11 0.71,-0.2 1.43,-0.4 2.14,-0.61l2.13 -0.61c0.12,-0.04 0.24,-0.08 0.36,-0.11 0.22,-0.09 0.29,-0.23 0.26,-0.46l-0.71 -2.51c-0.14,-0.47 -0.28,-0.94 -0.42,-1.42 -0.02,-0.06 -0.15,-0.51 -0.25,-0.88 -0.15,-0.51 -0.39,-0.44 -0.88,-0.34 -1.18,0.35 -2.37,0.68 -3.56,1.03 -0.33,0.09 -0.67,0.19 -1,0.28 -0.2,0.09 -0.4,0.16 -0.31,0.53zm3.5 5.13c0.12,0.03 0.36,0.03 0.49,0.04 0.16,0.02 0.33,0.03 0.49,0.04l2 0.15c0.15,0.01 0.64,0.05 0.86,0.06 0.11,0.01 0.16,-0.04 0.17,-0.11 0.03,-0.23 0.07,-0.97 0.1,-1.2 0.01,-0.06 0.04,-0.13 0.04,-0.17 -0.15,0.02 -0.37,0.1 -0.52,0.14 -1.21,0.34 -2.43,0.7 -3.63,1.05zm3.06 -5.17l0.76 0.06 0.01 0.03c0,0.01 0,0.01 0,0.03 0.01,0.02 0,0.05 0,0.07 0,0.04 0,0.08 -0.01,0.12l-0.12 1.7c-0.01,0.24 -0.01,0.19 0.07,0.45 0.04,0.14 0.07,0.27 0.11,0.4 0.04,0.13 0.2,0.73 0.25,0.8 0.02,-0.14 0.14,-1.86 0.16,-2.05 0.02,-0.34 0.05,-0.67 0.07,-1.01 0.02,-0.27 0.05,-0.56 0.06,-0.84 -0.02,-0.13 -0.05,-0.17 -0.21,-0.22 -0.42,-0.04 -1.13,-0.11 -1.3,-0.1 0,0.06 0.13,0.49 0.15,0.56zm-2.78 5.57c0.09,0.07 1.88,1.04 2.25,1.22 0.05,0.01 0.1,0 0.14,-0.04 0.11,-0.2 0.5,-0.93 0.5,-0.95 -0.45,-0.07 -0.97,-0.09 -1.44,-0.12l-1.45 -0.11zm4.26 -2.32c0.07,-0.06 0.59,-1.05 0.68,-1.22l0.14 -0.27c0.02,-0.11 0.01,-0.14 -0.06,-0.22 -0.2,-0.11 -0.55,-0.3 -0.61,-0.31 -0.01,0.16 -0.04,0.34 -0.04,0.51 0,0.05 0.02,0.09 0.02,0.12 0,0.02 -0.02,0.08 -0.03,0.11 -0.01,0.09 -0.01,0.17 -0.02,0.26 -0.02,0.18 -0.08,0.88 -0.08,1.02zm-6.37 -3.06c-0.46,0.13 -0.25,0.79 0.18,0.67 0.44,-0.13 0.25,-0.79 -0.18,-0.67z"/>
 </g>
</svg>
