<?xml version="1.0" encoding="UTF-8"?>
<!DOCTYPE svg PUBLIC "-//W3C//DTD SVG 1.1//EN" "http://www.w3.org/Graphics/SVG/1.1/DTD/svg11.dtd">
<!-- Creator: CorelDRAW 2018 (64-Bit) -->
<svg xmlns="http://www.w3.org/2000/svg" xml:space="preserve" width="60px" height="59px" version="1.1" style="shape-rendering:geometricPrecision; text-rendering:geometricPrecision; image-rendering:optimizeQuality; fill-rule:evenodd; clip-rule:evenodd"
viewBox="0 0 7.81 7.63"
 xmlns:xlink="http://www.w3.org/1999/xlink">
 <defs>
  <style type="text/css">
   <![CDATA[
    .str0 {stroke:#FEFEFE;stroke-width:0.56;stroke-miterlimit:22.9256}
    .fil0 {fill:none}
    .fil1 {fill:#FEFEFE}
   ]]>
  </style>
 </defs>
 <g id="Слой_x0020_1">
  <metadata id="CorelCorpID_0Corel-Layer"/>
  <path class="fil0 str0" d="M0.28 7.63c0,-1.41 1.62,-2.55 3.62,-2.55 2,0 3.63,1.14 3.63,2.55"/>
  <path class="fil1" d="M3.46 0.82c0.01,-0.01 0.03,-0.01 0.04,-0.02 0.05,-0.03 0.06,-0.08 0.08,-0.1 0,-0.02 0.12,-0.38 0.13,-0.4l0.38 0c0.01,0.02 0.06,0.16 0.06,0.18 0.01,0.02 0.01,0.02 0.02,0.05 0,0.01 0.01,0.03 0.01,0.04 0.03,0.08 0.05,0.17 0.1,0.22 0.01,0 0.02,0.01 0.03,0.02 0.04,0.01 0.07,0.02 0.1,0.03 0.28,0.1 0.21,0.16 0.44,0.04 0.03,-0.02 0.14,-0.08 0.16,-0.08l0.12 -0.06 0.21 0.2c0.02,0.02 0.05,0.05 0.06,0.07 0,0.01 0,0.01 -0.01,0.02 0,0.02 -0.06,0.14 -0.08,0.16 -0.01,0.03 -0.02,0.05 -0.03,0.08 -0.01,0.02 -0.03,0.05 -0.04,0.07 -0.01,0.03 -0.04,0.06 -0.04,0.1 -0.01,0.02 -0.01,0.05 0,0.07 0.01,0.02 0.02,0.03 0.02,0.05 0.01,0.01 0,0 0.01,0.01l0.02 0.05c0.03,0.06 0.07,0.14 0.08,0.21 0.02,0.03 0.03,0.06 0.1,0.08 0.13,0.05 0.28,0.1 0.41,0.14l0 0.38c-0.08,0.03 -0.17,0.06 -0.26,0.09 -0.08,0.02 -0.19,0.05 -0.23,0.1 -0.02,0.04 -0.06,0.17 -0.1,0.24 -0.01,0.03 -0.04,0.09 -0.05,0.12 -0.02,0.08 0.02,0.1 0.02,0.14 0.01,0.01 0.01,0 0.02,0.02 0,0 0,0.01 0,0.01 0.02,0.04 0.05,0.09 0.06,0.12 0.02,0.02 0.07,0.14 0.08,0.16l0.02 0.05 -0.26 0.27c-0.03,-0.01 -0.34,-0.16 -0.35,-0.18 -0.02,0 -0.04,-0.02 -0.07,-0.03 -0.07,-0.02 -0.1,0.01 -0.16,0.04 -0.09,0.04 -0.25,0.09 -0.28,0.11 -0.02,0.02 -0.02,0.03 -0.04,0.05 0,0.02 0,0.01 -0.01,0.01l-0.14 0.43 -0.38 0c-0.01,-0.04 -0.06,-0.17 -0.06,-0.19 -0.01,-0.01 -0.01,0 -0.01,-0.02 0,0 -0.01,-0.01 -0.01,-0.01 0,-0.02 0,-0.02 -0.01,-0.03l-0.05 -0.18c-0.01,-0.01 -0.02,-0.03 -0.03,-0.04 -0.01,-0.01 -0.02,-0.02 -0.05,-0.03l-0.17 -0.06c-0.09,-0.04 -0.16,-0.1 -0.23,-0.08 -0.05,0.01 -0.17,0.08 -0.22,0.1 -0.04,0.02 -0.18,0.1 -0.21,0.11l-0.27 -0.27c0.01,-0.03 0.04,-0.07 0.05,-0.1 0.02,-0.03 0.03,-0.06 0.05,-0.09 0.15,-0.29 0.13,-0.25 0.06,-0.42 -0.02,-0.04 -0.08,-0.16 -0.08,-0.2 -0.01,-0.02 -0.02,-0.04 -0.03,-0.06 -0.01,-0.01 -0.01,-0.01 -0.03,-0.02 0,0 -0.01,-0.01 -0.01,-0.01l-0.01 -0.01c-0.03,0 -0.38,-0.12 -0.43,-0.14l0 -0.38c0.04,-0.01 0.41,-0.13 0.45,-0.15 0.07,-0.04 0.08,-0.18 0.15,-0.32 0.01,-0.01 0.03,-0.06 0.04,-0.08 0.02,-0.07 -0.02,-0.13 -0.05,-0.18 -0.05,-0.1 -0.1,-0.21 -0.16,-0.31l0.27 -0.27c0.13,0.06 0.26,0.12 0.38,0.18 0.1,0.05 0.14,0.01 0.22,-0.02 0.03,-0.02 0.17,-0.08 0.2,-0.08zm-0.01 -0.7c0,0.01 0,0.02 0,0.03 -0.02,0.02 -0.01,0.01 -0.02,0.01 0.01,0.04 -0.04,0.13 -0.04,0.17 -0.01,0.01 -0.01,0.02 -0.02,0.03 0,0.01 0,0.02 0,0.02 -0.01,0.02 -0.01,0.01 -0.01,0.02 0,0.01 -0.05,0.15 -0.05,0.16l-0.16 0.06c-0.03,0.03 -0.08,-0.02 -0.08,-0.02 -0.04,0 -0.35,-0.18 -0.41,-0.19 -0.1,-0.02 -0.16,0.06 -0.2,0.1l-0.3 0.31c-0.05,0.04 -0.12,0.1 -0.09,0.2 0.02,0.06 0.19,0.36 0.19,0.4 0.01,0.01 0,0 0.01,0.01 0.01,0.02 0,0.01 0.01,0.02 0.02,0.02 -0.01,0.06 -0.02,0.09 -0.01,0.03 -0.02,0.05 -0.03,0.09 -0.01,0.02 -0.01,0.02 -0.04,0.03 -0.03,0.01 -0.12,0.04 -0.14,0.04 -0.01,0.01 -0.04,0.02 -0.05,0.02 -0.02,0.01 -0.16,0.06 -0.18,0.06 -0.01,0.01 -0.01,0.01 -0.03,0.01 -0.01,0.01 -0.02,0.01 -0.03,0.01 -0.03,0.02 -0.09,0.04 -0.1,0.13 0,0.12 0,0.35 0,0.47 0,0.21 -0.02,0.25 0.17,0.3 0.06,0.02 0.12,0.04 0.18,0.06 0.06,0.02 0.11,0.04 0.17,0.06 0.05,0.02 0.04,0.02 0.06,0.07 0.01,0.02 0.03,0.06 0.03,0.08 0.01,0.01 0.02,0.03 0.02,0.04 0,0.01 0,0.01 -0.01,0.02 0,0.02 0,0.01 -0.01,0.02 0,0.02 -0.06,0.14 -0.08,0.16 -0.04,0.13 -0.2,0.29 -0.09,0.4 0.04,0.03 0.06,0.06 0.1,0.09l0.28 0.29c0.09,0.09 0.06,0.05 0.1,0.08 0.07,0 0.07,0.02 0.14,-0.01 0.03,-0.02 0.06,-0.04 0.1,-0.05 0.07,-0.04 0.14,-0.07 0.21,-0.11 0.13,-0.07 0.08,-0.05 0.21,0 0.07,0.02 0.06,0 0.08,0.07 0.01,0.02 0.04,0.1 0.04,0.12 0,0.01 0,0 0.01,0.02 0,0.01 0,0.01 0,0.02 0.02,0.02 0.06,0.14 0.06,0.16l0.02 0.06c0.01,0.03 0.02,0.05 0.03,0.07 0.02,0.03 0.03,0.03 0.06,0.05 0.09,0.02 0.5,0.01 0.64,0.01 0.16,0 0.16,-0.12 0.2,-0.24l0.1 -0.3c0.01,-0.02 0,-0.01 0.02,-0.02l0.16 -0.07c0.02,-0.01 0.39,0.2 0.44,0.22 0.08,0.03 0.13,0.01 0.17,-0.04l0.45 -0.44c0,-0.03 0.01,-0.04 0.02,-0.08 0,-0.06 -0.08,-0.18 -0.1,-0.24 -0.04,-0.07 -0.08,-0.14 -0.12,-0.22 -0.02,-0.05 -0.01,-0.03 0.02,-0.12 0.03,-0.07 0.03,-0.09 0.06,-0.1 0.09,-0.03 0.46,-0.14 0.5,-0.19 0.06,-0.06 0.04,-0.19 0.04,-0.29 0,-0.12 0,-0.23 0,-0.34 0,-0.09 0,-0.18 -0.12,-0.21 -0.03,-0.01 -0.06,-0.02 -0.08,-0.03 -0.03,0 -0.12,-0.04 -0.16,-0.05 -0.01,-0.01 -0.02,-0.01 -0.04,-0.02 -0.01,0 -0.02,0 -0.03,-0.01 -0.02,0 -0.05,-0.01 -0.07,-0.02 -0.07,-0.02 -0.06,-0.01 -0.07,-0.04 -0.01,-0.02 -0.05,-0.13 -0.05,-0.14 -0.01,-0.01 -0.02,-0.01 0,-0.04 0.01,-0.02 0.01,-0.03 0.02,-0.04l0.04 -0.08c0,-0.01 0.07,-0.16 0.08,-0.17 0.03,-0.06 0.08,-0.13 0.07,-0.21 0,-0.06 -0.07,-0.12 -0.11,-0.15 -0.05,-0.05 -0.08,-0.09 -0.13,-0.14 -0.05,-0.05 -0.09,-0.08 -0.14,-0.13 -0.08,-0.09 -0.14,-0.16 -0.26,-0.1l-0.28 0.13c-0.09,0.05 -0.14,0.1 -0.18,0.05 -0.02,0 -0.06,-0.02 -0.09,-0.03 -0.04,-0.02 -0.05,-0.01 -0.06,-0.06l-0.12 -0.35c-0.02,-0.08 -0.04,-0.12 -0.09,-0.15 -0.06,-0.03 -0.37,-0.02 -0.46,-0.02 -0.2,0 -0.3,-0.03 -0.36,0.12zm1.15 2.39c-0.07,0.17 -0.19,0.3 -0.33,0.38 -0.08,0.04 -0.17,0.08 -0.27,0.09 -0.06,0.01 -0.27,0.01 -0.31,-0.03 -0.03,0.01 -0.14,-0.04 -0.16,-0.06 -0.04,-0.01 -0.14,-0.1 -0.16,-0.12 -0.02,-0.02 -0.11,-0.12 -0.12,-0.16 -0.03,-0.03 -0.06,-0.15 -0.08,-0.19 -0.01,-0.08 -0.02,-0.16 -0.01,-0.24 0.01,-0.13 0.06,-0.3 0.14,-0.38 0.01,-0.02 0.06,-0.07 0.07,-0.09 0.01,-0.01 0.07,-0.06 0.08,-0.07 0.04,-0.03 0.12,-0.07 0.17,-0.09 0.15,-0.06 0.3,-0.07 0.46,-0.03 0.06,0.01 0.13,0.04 0.18,0.07 0.05,0.02 0.13,0.09 0.16,0.12 0.03,0.02 0.05,0.05 0.07,0.08 0.02,0.01 0.05,0.06 0.06,0.09 0.01,0.01 0.05,0.1 0.06,0.13 0.02,0.06 0.02,0.1 0.03,0.16 0.01,0.11 -0.01,0.25 -0.04,0.34zm-1.3 -1.13l-0.22 0.22c-0.02,0.01 -0.02,0.02 -0.03,0.03 -0.01,0.02 -0.03,0.05 -0.04,0.06 -0.01,0.03 -0.02,0.04 -0.03,0.06 -0.02,0.03 -0.05,0.11 -0.06,0.13 0,0.01 0,0.01 -0.01,0.02l-0.01 0.02c0,0.02 -0.02,0.1 -0.03,0.14 -0.04,0.24 0.02,0.41 0.02,0.45l0.01 0.03c0,0.01 0.01,0.02 0.01,0.04 0.01,0.01 0.02,0.06 0.03,0.08 0.01,0.02 0.03,0.05 0.03,0.07 0,0 0.01,0.01 0.01,0.01l0 0.01c0,0 0.01,0.01 0.01,0.01l0.12 0.17c0.02,0.01 0.04,0.05 0.07,0.07 0.01,0.01 0.02,0.02 0.03,0.03 0.01,0.01 0.02,0.01 0.03,0.03 0.02,0.01 0.05,0.03 0.07,0.04 0.01,0.01 0.02,0.02 0.04,0.03 0.01,0.01 0.02,0 0.03,0.02 0.02,0 0.07,0.03 0.09,0.04 0.03,0.02 0.06,0.03 0.09,0.04 0.08,0.03 0.14,0.03 0.21,0.05l0.08 0c0.12,0.01 0.21,0 0.32,-0.03 0.04,-0.01 0.09,-0.03 0.13,-0.04 0.03,-0.02 0.1,-0.06 0.12,-0.06 0.01,-0.01 0.02,-0.02 0.04,-0.03 0.01,-0.01 0.06,-0.04 0.08,-0.05 0.16,-0.12 0.3,-0.32 0.36,-0.52 0.14,-0.47 -0.09,-0.79 -0.09,-0.83 -0.01,-0.01 -0.02,-0.02 -0.03,-0.03 -0.01,-0.02 -0.01,-0.03 -0.02,-0.04 -0.02,-0.02 -0.04,-0.05 -0.05,-0.07 -0.02,-0.01 -0.02,-0.02 -0.03,-0.03 -0.01,-0.01 -0.02,-0.02 -0.03,-0.03 -0.01,-0.02 -0.04,-0.04 -0.05,-0.06 -0.04,-0.02 -0.14,-0.12 -0.32,-0.19l-0.13 -0.04c0,0 0,0 0,-0.01 0,0 0,0 0,0 -0.04,0.01 -0.23,-0.06 -0.49,0 -0.07,0.02 -0.13,0.04 -0.19,0.07 -0.03,0.01 -0.07,0.03 -0.09,0.05 -0.02,0.01 -0.07,0.04 -0.08,0.04z"/>
 </g>
</svg>
