<?xml version="1.0" encoding="UTF-8"?>
<!DOCTYPE svg PUBLIC "-//W3C//DTD SVG 1.1//EN" "http://www.w3.org/Graphics/SVG/1.1/DTD/svg11.dtd">
<!-- Creator: CorelDRAW 2018 (64-Bit) -->
<svg xmlns="http://www.w3.org/2000/svg" xml:space="preserve" width="70px" height="71px" version="1.1" style="shape-rendering:geometricPrecision; text-rendering:geometricPrecision; image-rendering:optimizeQuality; fill-rule:evenodd; clip-rule:evenodd"
viewBox="0 0 26.85 27.07"
 xmlns:xlink="http://www.w3.org/1999/xlink">
 <defs>
  <style type="text/css">
   <![CDATA[
    .fil0 {fill:#FEFEFE}
   ]]>
  </style>
 </defs>
 <g id="Слой_x0020_1">
  <metadata id="CorelCorpID_0Corel-Layer"/>
  <g id="_2417147683152">
   <path class="fil0" d="M3.43 23.67c0.07,-0.28 0.57,-1.71 0.68,-2.02 0.04,-0.12 0.67,-1.96 0.67,-2.03l-0.41 -0.62c-0.13,-0.22 -0.27,-0.44 -0.39,-0.66 -0.51,-1.02 -0.86,-1.96 -1.09,-3.11 -0.57,-2.95 0.15,-5.96 1.78,-8.32 0.1,-0.14 0.19,-0.25 0.29,-0.39 0.1,-0.13 0.19,-0.25 0.3,-0.37l0.32 -0.36c0.18,-0.25 0.76,-0.75 1.03,-1 0.29,-0.25 0.75,-0.6 1.07,-0.79 0.24,-0.15 0.48,-0.31 0.74,-0.44l0.67 -0.34c0.59,-0.3 1.37,-0.54 2.01,-0.7 1.87,-0.47 3.84,-0.37 5.69,0.15 0.19,0.05 0.33,0.11 0.51,0.17 0.18,0.05 0.32,0.11 0.49,0.18 0.09,0.03 0.15,0.06 0.24,0.1 0.69,0.29 0.97,0.49 1.55,0.83 0.15,0.09 0.28,0.18 0.42,0.28 0.2,0.13 0.39,0.28 0.57,0.44l0.37 0.31c0.07,0.06 0.11,0.1 0.17,0.16l0.36 0.34c0.23,0.23 0.43,0.47 0.64,0.71 0.22,0.24 0.41,0.5 0.58,0.77 0.28,0.41 0.54,0.82 0.76,1.27 0.16,0.31 0.31,0.62 0.43,0.94 0.35,0.94 0.54,1.69 0.68,2.71 0.2,1.5 0.03,3.23 -0.44,4.63 -0.13,0.41 -0.27,0.81 -0.46,1.19l-0.18 0.38c-0.12,0.24 -0.24,0.49 -0.39,0.71 -0.25,0.39 -0.37,0.6 -0.67,1 -0.25,0.33 -0.97,1.18 -1.3,1.44 -0.1,0.07 -0.2,0.18 -0.3,0.26 -0.1,0.09 -0.2,0.17 -0.3,0.26 -0.05,0.04 -0.1,0.07 -0.15,0.12 -0.06,0.04 -0.11,0.07 -0.17,0.12 -0.52,0.39 -1.11,0.76 -1.7,1.05 -1.07,0.51 -2.22,0.88 -3.39,1.02 -0.44,0.05 -0.87,0.09 -1.3,0.09 -0.12,-0.01 -0.16,0.01 -0.27,0.01 -0.12,0 -0.16,-0.01 -0.26,-0.02 -0.26,0 -0.52,-0.03 -0.77,-0.05 -0.75,-0.04 -1.97,-0.35 -2.7,-0.63 -0.64,-0.25 -1.24,-0.55 -1.83,-0.9 -0.05,-0.03 -0.33,-0.21 -0.34,-0.21 -0.06,-0.01 -1.84,0.57 -2.1,0.66l-0.42 0.13c-0.29,0.08 -0.55,0.19 -0.84,0.27 -0.07,0.02 -0.13,0.04 -0.2,0.07 -0.16,0.05 -0.51,0.18 -0.65,0.19zm-1.06 -3.67c0,0.07 -1.47,4.37 -1.63,4.85l-0.45 1.33c-0.03,0.11 -0.28,0.8 -0.29,0.89l0.41 -0.13c1.51,-0.5 3.04,-0.96 4.55,-1.45l2.06 -0.66c0.08,-0.03 0.13,-0.04 0.21,-0.07 0.1,-0.03 0.09,-0.01 0.18,0.04 0.48,0.26 0.98,0.49 1.49,0.69 0.84,0.32 1.68,0.56 2.57,0.71 1.94,0.32 4.04,0.21 5.91,-0.35 0.42,-0.13 0.82,-0.26 1.21,-0.42 0.92,-0.37 1.84,-0.87 2.62,-1.42l0.47 -0.34c0.24,-0.2 0.57,-0.43 0.78,-0.64l1.29 -1.33c0.25,-0.29 0.48,-0.61 0.71,-0.92 0.22,-0.32 0.43,-0.64 0.63,-0.99l0.29 -0.52c0.37,-0.74 0.7,-1.5 0.93,-2.3 0.12,-0.43 0.22,-0.86 0.32,-1.3 0.04,-0.24 0.07,-0.45 0.11,-0.7 0.09,-0.66 0.11,-1.36 0.11,-2.05 0,-0.51 -0.04,-0.99 -0.11,-1.49 -0.07,-0.49 -0.15,-0.93 -0.26,-1.37 -0.27,-1.09 -0.65,-2.06 -1.16,-3.06 -0.03,-0.04 -0.05,-0.09 -0.07,-0.13 -0.05,-0.09 -0.1,-0.17 -0.15,-0.26 -0.38,-0.68 -0.85,-1.3 -1.34,-1.91 -0.19,-0.24 -0.75,-0.86 -0.97,-1.04 -0.04,-0.04 -0.06,-0.05 -0.11,-0.09l-0.21 -0.2c-0.21,-0.21 -0.53,-0.46 -0.77,-0.64 -0.38,-0.3 -0.79,-0.58 -1.2,-0.83 -0.61,-0.36 -1.23,-0.68 -1.89,-0.94 -1.03,-0.41 -2.08,-0.69 -3.21,-0.84 -1.58,-0.22 -3.31,-0.13 -4.83,0.25 -0.71,0.18 -1.38,0.39 -2.05,0.67 -0.06,0.03 -0.11,0.06 -0.18,0.09 -0.08,0.03 -0.13,0.05 -0.2,0.09 -0.07,0.03 -0.12,0.05 -0.19,0.08 -0.06,0.03 -0.11,0.06 -0.18,0.09 -0.06,0.03 -0.11,0.06 -0.18,0.09 -0.64,0.32 -1.25,0.73 -1.83,1.16 -0.11,0.08 -0.21,0.16 -0.32,0.24l-1.14 1.03c-0.25,0.25 -0.48,0.52 -0.71,0.78l-0.32 0.38c-0.08,0.1 -0.15,0.21 -0.23,0.31 -0.47,0.63 -0.88,1.32 -1.23,2.04 -0.03,0.06 -0.06,0.12 -0.09,0.18 -0.35,0.69 -0.59,1.44 -0.8,2.2 -0.31,1.11 -0.41,2.18 -0.44,3.38l0.01 0.52c0,0.17 0.03,0.35 0.03,0.51 0.03,0.65 0.15,1.27 0.29,1.89 0.06,0.31 0.13,0.59 0.22,0.88 0.09,0.27 0.17,0.54 0.28,0.8l0.4 0.97c0.07,0.17 0.66,1.25 0.66,1.25z"/>
   <path class="fil0" d="M7.06 9.95c0,1.05 0.39,2.07 0.92,2.95 0.07,0.13 0.15,0.25 0.23,0.38l1 1.47 0.54 0.69c0.1,0.12 0.19,0.22 0.29,0.34 0.09,0.11 0.21,0.22 0.3,0.32 0.15,0.19 0.52,0.55 0.69,0.7 0.03,0.02 0.05,0.04 0.08,0.07l0.5 0.43c0.34,0.31 1.45,1.06 1.87,1.24 0.28,0.12 0.55,0.26 0.85,0.38 0.65,0.26 1.1,0.46 1.8,0.68 0.46,0.15 0.92,0.26 1.42,0.16 0.37,-0.07 0.5,-0.03 0.95,-0.21 0.61,-0.24 1.46,-0.73 1.71,-1.36 0.19,-0.46 0.29,-0.88 0.29,-1.43 0,-0.31 -0.32,-0.39 -0.58,-0.54l-1.84 -0.98c-0.22,-0.11 -0.54,-0.29 -0.8,-0.33 -0.26,-0.04 -0.4,0.17 -0.51,0.31 -0.14,0.19 -0.29,0.34 -0.39,0.47l-0.46 0.52c-0.03,0.03 -0.05,0.05 -0.08,0.08 -0.23,0.23 -0.33,0.41 -0.74,0.24l-0.75 -0.37c-0.33,-0.17 -0.92,-0.54 -1.2,-0.77l-1.05 -0.94c-0.43,-0.43 -0.91,-1.09 -1.22,-1.61 -0.16,-0.26 -0.38,-0.56 -0.38,-0.83 0,-0.21 0.25,-0.37 0.39,-0.52 0.03,-0.04 0.04,-0.06 0.08,-0.1 0.07,-0.07 0.11,-0.13 0.18,-0.2l0.33 -0.42c0.34,-0.56 0.23,-0.56 0.04,-1.09 -0.22,-0.62 -0.5,-1.3 -0.71,-1.91 -0.08,-0.23 -0.21,-0.59 -0.34,-0.77 -0.13,-0.17 -0.24,-0.22 -0.53,-0.22 -0.45,0.01 -0.78,-0.15 -1.24,0.09 -0.17,0.08 -0.45,0.33 -0.55,0.46 -0.13,0.16 -0.22,0.19 -0.46,0.55 -0.39,0.59 -0.63,1.31 -0.63,2.07z"/>
  </g>
 </g>
</svg>
