<?xml version="1.0" encoding="UTF-8"?>
<!DOCTYPE svg PUBLIC "-//W3C//DTD SVG 1.1//EN" "http://www.w3.org/Graphics/SVG/1.1/DTD/svg11.dtd">
<!-- Creator: CorelDRAW 2018 (64-Bit) -->
<svg xmlns="http://www.w3.org/2000/svg" xml:space="preserve" width="60px" height="69px" version="1.1" style="shape-rendering:geometricPrecision; text-rendering:geometricPrecision; image-rendering:optimizeQuality; fill-rule:evenodd; clip-rule:evenodd"
viewBox="0 0 4.15 4.76"
 xmlns:xlink="http://www.w3.org/1999/xlink">
 <defs>
  <style type="text/css">
   <![CDATA[
    .str0 {stroke:#FEFEFE;stroke-width:0.19;stroke-miterlimit:22.9256}
    .str1 {stroke:#FEFEFE;stroke-width:0.12;stroke-miterlimit:22.9256}
    .fil1 {fill:none}
    .fil0 {fill:#FEFEFE}
   ]]>
  </style>
 </defs>
 <g id="Слой_x0020_1">
  <metadata id="CorelCorpID_0Corel-Layer"/>
  <path class="fil0" d="M1.31 2.84c0,-0.01 0,-0.04 0,-0.06 0.01,-0.02 0.01,-0.03 0.01,-0.05l0.06 -0.35 0.39 0.39c-0.05,0.01 -0.32,0.05 -0.4,0.06 -0.02,0.01 -0.05,0.01 -0.06,0.01zm0.64 -0.13l-0.51 -0.51 1.62 -1.62 0.51 0.51 -1.62 1.62zm1.23 -2.25l0.25 -0.25 0.51 0.51 -0.25 0.25 -0.51 -0.51zm-2.07 2.49c0,0.04 0.05,0.08 0.09,0.08 0.01,0 0.05,0 0.07,-0.01l0.21 -0.03c0.1,-0.01 0.19,-0.03 0.28,-0.05 0.05,0 0.1,-0.01 0.14,-0.02 0.06,-0.01 0.09,-0.01 0.13,-0.04 0.6,-0.6 1.2,-1.21 1.81,-1.81l0.28 -0.29c0.06,-0.08 0.01,-0.12 -0.04,-0.17 -0.03,-0.03 -0.06,-0.06 -0.09,-0.09l-0.36 -0.36c-0.03,-0.03 -0.06,-0.06 -0.09,-0.09 -0.03,-0.03 -0.06,-0.07 -0.11,-0.07 -0.05,0 -0.07,0.04 -0.1,0.06l-0.25 0.25c-0.11,0.11 -0.21,0.22 -0.32,0.33 -0.22,0.22 -0.44,0.44 -0.66,0.66 -0.22,0.22 -0.44,0.44 -0.66,0.66 -0.06,0.05 -0.11,0.1 -0.17,0.16 -0.03,0.04 -0.03,0.06 -0.04,0.12 -0.01,0.04 -0.02,0.09 -0.02,0.14 -0.02,0.09 -0.03,0.19 -0.05,0.28l-0.05 0.29z"/>
  <path class="fil1 str0" d="M2.21 0.47c-0.7,0 -1.41,0 -2.11,0 0,1.4 0,2.8 0,4.19 1.09,0 2.19,0 3.28,0 0,-0.87 0,-1.74 0,-2.6"/>
  <line class="fil1 str1" x1="2.87" y1="4.03" x2="0.61" y2= "4.03" />
  <line class="fil1 str1" x1="2.87" y1="3.52" x2="0.61" y2= "3.52" />
  <line class="fil1 str1" x1="1.02" y1="3.06" x2="0.61" y2= "3.06" />
 </g>
</svg>
